<svg width="94" height="35" viewBox="0 0 94 35" fill="none" xmlns="http://www.w3.org/2000/svg">
<g clip-path="url(#clip0_7_7)">
<path d="M48.45 0.24999C49.07 0.37999 49.69 0.50999 50.32 0.64999C52.82 1.18999 55.06 2.26999 57.06 3.85999C57.53 4.22999 57.97 4.63999 58.39 5.05999C59.18 5.85999 59.25 7.00999 58.61 7.90999C57.83 9.00999 57.05 10.11 56.27 11.21C55.41 12.44 54.3 12.58 53.31 11.47C51.83 9.81999 50.04 8.78999 47.89 8.28999C45.41 7.69999 43.24 8.37999 41.26 9.84999C39.66 11.04 38.48 12.58 37.93 14.52C37.06 17.58 37.69 20.34 39.65 22.82C41.07 24.62 42.92 25.74 45.16 26.23C47.41 26.72 49.45 26.22 51.31 24.89C52.86 23.78 53.84 22.17 54.93 20.65C57.02 17.73 59.12 14.81 61.2 11.88C63.09 9.21999 64.95 6.52999 66.86 3.87999C67.83 2.54999 69.05 1.48999 70.65 0.94999C72.69 0.25999 74.51 0.71999 76.21 1.93999C77.69 3.00999 78.61 4.55999 79.65 5.99999C81.9 9.15999 84.16 12.32 86.39 15.49C88.11 17.93 89.82 20.37 91.49 22.84C92.35 24.11 93 25.49 92.89 27.07C92.75 29.19 91.78 30.88 89.97 31.99C88.34 32.99 86.54 33.12 84.65 33.02C82.67 32.91 80.68 33.06 78.69 33.1C78.54 33.1 78.4 33.11 78.25 33.11C75.8 33.11 73.35 33.11 70.9 33.11C70.05 33.11 69.56 32.66 69.52 31.81C69.46 30.36 69.39 28.92 69.4 27.47C69.41 25.55 70.32 25 71.88 24.95C74.86 24.85 77.84 24.86 80.83 24.8C81.19 24.8 81.57 24.73 81.92 24.63C82.3 24.53 82.49 24.28 82.22 23.89C81.51 22.87 80.82 21.84 80.09 20.83C78.5 18.63 76.88 16.44 75.28 14.25C74.57 13.28 73.89 12.28 73.18 11.31C72.61 10.54 72 10.57 71.43 11.38C69.27 14.45 67.12 17.53 64.95 20.6C63.17 23.12 61.42 25.66 59.55 28.11C57.73 30.49 55.31 32.13 52.52 33.22C50.17 34.14 47.72 34.51 45.22 34.33C41.99 34.1 39.05 33.02 36.46 31.03C34.28 29.35 32.58 27.26 31.37 24.8C30.39 22.81 29.84 20.7 29.63 18.47C29.33 15.34 29.92 12.38 31.3 9.60999C31.93 8.34999 32.85 7.20999 33.73 6.08999C35.16 4.26999 37.04 2.97999 39.09 1.96999C40.78 1.13999 42.57 0.55999 44.46 0.37999C44.54 0.37999 44.62 0.28999 44.69 0.23999C45.94 0.23999 47.18 0.23999 48.43 0.23999L48.45 0.24999Z" fill="#E30613" stroke="#1D1D1B" stroke-width="0.5" stroke-miterlimit="10"/>
<path d="M27.99 20.03C27.34 19.15 26.69 18.28 26.05 17.39C24.53 15.29 23.03 13.17 21.5 11.08C21 10.4 20.31 10.41 19.83 11.1C17.93 13.76 16.06 16.43 14.16 19.09C13.22 20.4 12.25 21.69 11.29 22.99C11.16 23.17 11.05 23.37 10.93 23.55C10.36 24.38 10.85 24.78 11.68 24.79C14.61 24.83 17.53 24.8 20.46 24.8C21.07 24.8 21.67 24.77 22.28 24.8C23.13 24.83 23.45 25.52 23.51 26.17C23.6 27.15 23.65 28.15 23.63 29.14C23.62 29.85 23.51 30.57 23.39 31.27C23.27 31.99 22.8 32.45 22.1 32.59C21.4 32.73 20.68 32.84 19.97 32.84C15.61 32.86 11.25 32.87 6.89 32.84C5.27 32.84 3.72 32.44 2.38 31.47C1.07 30.52 0.339997 29.22 0.269997 27.56C0.179997 25.51 1.01 23.78 2.03 22.1C4.62 17.85 7.68 13.95 10.66 9.97002C12.22 7.88002 13.72 5.73002 15.23 3.60002C16.16 2.29002 17.34 1.29002 18.87 0.810016C21.15 0.0900164 23.16 0.670017 24.91 2.21002C26.53 3.64002 27.5 5.58002 28.74 7.31002C29.01 7.69002 29.22 8.12002 29.52 8.48002C30.02 9.09002 29.97 9.74002 29.71 10.39C28.98 12.26 28.42 14.17 28.25 16.18C28.18 17 28.06 17.81 28.02 18.63C28 19.07 28.09 19.52 28.12 19.97L28 20.03H27.99Z" fill="#E30613" stroke="#1D1D1B" stroke-width="0.5" stroke-miterlimit="10"/>
</g>
<defs>
<clipPath id="clip0_7_7">
<rect width="93.15" height="34.64" fill="white"/>
</clipPath>
</defs>
</svg>
