<svg width="24" height="24" viewBox="0 0 24 24" fill="none" xmlns="http://www.w3.org/2000/svg">
<path d="M20.5851 9.18985L14.8101 3.41484C14.6578 3.2625 14.4586 3.1875 14.2594 3.1875C14.0601 3.1875 13.8609 3.2625 13.7086 3.41484L9.9328 7.19297C9.64686 7.16016 9.35858 7.14609 9.0703 7.14609C7.35467 7.14609 5.63905 7.71094 4.23045 8.84063C4.14516 8.90912 4.07524 8.99481 4.02527 9.09212C3.97529 9.18943 3.94638 9.29618 3.94041 9.40541C3.93444 9.51464 3.95155 9.6239 3.99062 9.72608C4.02969 9.82826 4.08985 9.92106 4.16717 9.99844L8.42577 14.257L3.37733 19.3008C3.31547 19.3623 3.27729 19.4436 3.26952 19.5305L3.18983 20.4023C3.16874 20.6227 3.34452 20.8102 3.56249 20.8102C3.5742 20.8102 3.58592 20.8102 3.59764 20.8078L4.46952 20.7281C4.55624 20.7211 4.63827 20.6813 4.6992 20.6203L9.74764 15.5719L14.0062 19.8305C14.1586 19.9828 14.3578 20.0578 14.557 20.0578C14.7844 20.0578 15.0094 19.9594 15.164 19.7672C16.4836 18.1195 17.032 16.057 16.8094 14.0625L20.5851 10.2867C20.8875 9.98672 20.8875 9.49453 20.5851 9.18985ZM15.0398 13.4484L15.1289 14.2547C15.2686 15.5017 15.0197 16.7615 14.4164 17.8617L6.14061 9.58125C6.44295 9.41484 6.75702 9.27422 7.08514 9.16172C7.72264 8.94141 8.39061 8.83125 9.0703 8.83125C9.2953 8.83125 9.52264 8.84297 9.74764 8.86875L10.5539 8.95781L14.2617 5.25L18.75 9.73828L15.0398 13.4484Z" fill="#BDBDBD"/>
</svg>
