<svg width="107" height="27" viewBox="0 0 107 27" fill="none" xmlns="http://www.w3.org/2000/svg">
<path d="M38.0608 0C38.0608 0 36.8216 0.525 34.8743 2.8L24.6068 15.4V23.1C24.6068 25.025 25.3149 25.9 25.3149 25.9H12.5689C12.5689 25.9 13.277 24.85 13.277 23.1V15.575L3.18649 3.15C1.41622 0.875 0 0.175 0 0.175H12.7459C12.7459 0.175 13.1 1.4 14.5162 3.5L18.7649 9.975H18.9419L23.1905 3.5C24.6068 1.575 24.9608 0.175 24.9608 0.175H38.0608V0Z" fill="white"/>
<path d="M63.5527 0H42.3094C42.3094 0 43.1946 1.05 43.1946 2.8V23.1C43.1946 25.025 42.3094 25.9 42.3094 25.9H55.0554C55.0554 25.9 54.3473 24.85 54.3473 23.1V16.8H63.5527C69.3946 16.8 73.8203 13.825 73.8203 8.4C73.8203 2.975 69.5716 0 63.5527 0ZM57.8878 12.25H54.3473V4.9H57.8878C60.5432 4.9 62.4905 5.95 62.4905 8.4C62.4905 10.85 60.5432 12.25 57.8878 12.25Z" fill="white"/>
<path d="M106.57 6.125C106.57 6.125 105.331 5.425 103.384 5.425H90.6379V11.725H100.905C102.853 11.725 104.446 11.375 104.446 11.375V17.675C104.446 17.675 103.03 17.15 100.905 17.15H90.815V23.45C90.815 25.375 91.5231 26.25 91.5231 26.25H78.7771C78.7771 26.25 79.4852 25.375 79.4852 23.45V2.8C79.4852 0.875 78.6001 0 78.6001 0H106.393V6.125H106.57Z" fill="white"/>
</svg>
